<svg xmlns:mydata="http://www.w3.org/2000/svg" mydata:contrastcolor="F9B5C4" mydata:template="Default" mydata:presentation="2.5" mydata:layouttype="undefined" mydata:specialfontid="undefined" mydata:id1="377" mydata:id2="535" mydata:companyname="salad bro" mydata:companytagline="" version="1.1" xmlns="http://www.w3.org/2000/svg" xmlns:xlink="http://www.w3.org/1999/xlink" viewBox="0 0 550 470"><g fill="none" fill-rule="none" stroke="none" stroke-width="1" stroke-linecap="butt" stroke-linejoin="miter" stroke-miterlimit="10" stroke-dasharray="" stroke-dashoffset="0" font-family="none" font-weight="none" font-size="none" text-anchor="none" style="mix-blend-mode: normal"><g data-paper-data="{&quot;isGlobalGroup&quot;:true}"><g data-paper-data="{&quot;isPrimaryText&quot;:true}" fill-rule="nonzero"><path d="M151.56668,336.71013l-7.4186,4.33918l-1.35308,-2.33289l7.46525,-4.33918zM159.54517,333.58405l-7.32528,4.24586l1.35308,2.33289l7.32528,-4.24586zM146.71426,334.89047c-0.51324,-0.97981 -0.79318,-2.00629 -0.79318,-3.03276c0,-3.26605 2.6595,-6.06552 6.06552,-6.06552c2.14626,0 4.15255,1.11979 5.22568,3.03276l4.52581,-2.61284c-2.05295,-3.546 -5.78557,-5.6456 -9.75149,-5.6456c-6.39212,0 -11.2912,5.22568 -11.2912,11.24454c0,1.95963 0.51324,3.91926 1.49305,5.69226zM163.2778,342.91562c0,-2.0996 -0.55989,-4.10589 -1.58637,-5.9722l-4.57247,2.56618c0.60655,1.07313 0.93316,2.23958 0.93316,3.40602c0,3.73263 -3.07942,6.8587 -6.8587,6.8587c-2.51952,0 -4.71244,-1.35308 -5.92555,-3.40602l-4.47915,2.61284c2.0996,3.68597 6.06552,6.01886 10.4047,6.01886c6.67207,0 12.08438,-5.45897 12.08438,-12.08438z" data-paper-data="{&quot;glyphName&quot;:&quot;S&quot;,&quot;glyphIndex&quot;:0,&quot;firstGlyphOfWord&quot;:true,&quot;word&quot;:1}" fill="#006747"></path><path d="M185.72022,345.52846c0,1.67968 -1.35308,3.03276 -3.03276,3.03276c-1.67968,0 -3.03276,-1.35308 -3.03276,-3.03276c0,-1.67968 1.35308,-3.03276 3.03276,-3.03276c1.67968,0 3.03276,1.35308 3.03276,3.03276zM186.74669,321.96625l-2.79947,7.55857l9.09828,24.58868h5.69226zM176.71526,329.9914l-9.00496,24.1221h5.69226l8.91165,-24.1221zM179.84133,321.45301l2.84613,7.65189l2.84613,-7.65189z" data-paper-data="{&quot;glyphName&quot;:&quot;A&quot;,&quot;glyphIndex&quot;:1,&quot;word&quot;:1}" fill="#006747"></path><path d="M205.50314,334.79715h5.22568v16.00364l-5.22568,1.35308zM210.72882,321.45301h-5.22568v5.22568h5.22568zM224.95946,354.1135v-5.6456l-19.64295,5.6456zM205.26986,330.69126c0,1.58637 1.25976,2.84613 2.84613,2.84613c1.53971,0 2.79947,-1.25976 2.79947,-2.84613c0,-1.53971 -1.25976,-2.84613 -2.79947,-2.84613c-1.58637,0 -2.84613,1.30642 -2.84613,2.84613z" data-paper-data="{&quot;glyphName&quot;:&quot;L&quot;,&quot;glyphIndex&quot;:2,&quot;word&quot;:1}" fill="#006747"></path><path d="M246.00215,345.52846c0,1.67968 -1.35308,3.03276 -3.03276,3.03276c-1.67968,0 -3.03276,-1.35308 -3.03276,-3.03276c0,-1.67968 1.35308,-3.03276 3.03276,-3.03276c1.67968,0 3.03276,1.35308 3.03276,3.03276zM247.02862,321.96625l-2.79947,7.55857l9.09828,24.58868h5.69226zM236.99719,329.9914l-9.00496,24.1221h5.69226l8.91165,-24.1221zM240.12326,321.45301l2.84613,7.65189l2.84613,-7.65189z" data-paper-data="{&quot;glyphName&quot;:&quot;A&quot;,&quot;glyphIndex&quot;:3,&quot;word&quot;:1}" fill="#006747"></path><path d="M271.19739,330.41132c0,1.53971 -1.25976,2.84613 -2.79947,2.84613c-1.58637,0 -2.84613,-1.30642 -2.84613,-2.84613c0,-1.58637 1.25976,-2.84613 2.84613,-2.84613c1.53971,0 2.79947,1.25976 2.79947,2.84613zM273.3903,321.45301h-7.83852v4.99239h7.83852zM265.55179,354.1135h8.16512l-8.16512,-20.62277zM274.69672,321.45301v4.99239c6.01886,0 10.77796,4.7591 11.10457,10.68465h5.22568c-0.3266,-8.72502 -7.55857,-15.67703 -16.33024,-15.67703zM285.80129,338.43647c-0.3266,5.92555 -5.03905,10.63799 -11.05791,10.63799v4.99239c8.77167,0 15.95698,-6.95202 16.28359,-15.63038z" data-paper-data="{&quot;glyphName&quot;:&quot;D&quot;,&quot;glyphIndex&quot;:4,&quot;lastGlyphOfWord&quot;:true,&quot;word&quot;:1}" fill="#006747"></path><path d="M317.94854,354.1135v-32.66049h-5.22568v32.66049zM324.15404,349.12111h-4.89907v4.99239h7.37194zM326.6269,321.45301h-7.37194v4.99239h4.89907zM319.25496,340.34944l7.93183,-3.21939l-7.93183,-3.21939zM335.67852,329.05824c0,-4.19921 -3.49934,-7.60523 -7.7452,-7.60523v4.29252c1.86631,0 3.35936,1.49305 3.35936,3.31271c0,1.86631 -1.49305,3.31271 -3.35936,3.31271v4.29252c4.24586,0 7.7452,-3.40602 7.7452,-7.60523zM336.33173,345.80841c0,-4.57247 -3.73263,-8.25844 -8.39841,-8.25844v4.29252c2.23958,0 4.05923,1.773 4.05923,3.96592c0,2.23958 -1.81966,4.01257 -4.05923,4.01257v4.29252c4.66578,0 8.39841,-3.68597 8.39841,-8.3051z" data-paper-data="{&quot;glyphName&quot;:&quot;B&quot;,&quot;glyphIndex&quot;:5,&quot;firstGlyphOfWord&quot;:true,&quot;word&quot;:2}" fill="#ce0056"></path><path d="M361.99355,342.63567c3.8726,-1.86631 6.34547,-5.78557 6.34547,-10.03144c0,-6.15884 -4.94573,-11.15122 -11.15122,-11.15122v5.22568c3.31271,0 5.92555,2.6595 5.92555,5.92555c0,2.75281 -1.91297,5.03905 -4.43249,5.69226zM344.73014,329.94474l11.47783,-8.49173h-11.47783zM357.14113,338.48312h-6.20549l11.89775,15.63038h6.43878zM349.95582,331.01787h-5.22568v23.09563h5.22568z" data-paper-data="{&quot;glyphName&quot;:&quot;R&quot;,&quot;glyphIndex&quot;:6,&quot;word&quot;:2}" fill="#ce0056"></path><path d="M399.7864,335.45036c0,1.67968 -1.35308,3.03276 -3.03276,3.03276c-1.67968,0 -3.03276,-1.35308 -3.03276,-3.03276c0,-1.67968 1.35308,-3.03276 3.03276,-3.03276c1.67968,0 3.03276,1.35308 3.03276,3.03276zM386.34894,343.00893l3.49934,-3.49934l-3.49934,-3.546l-3.546,3.546zM392.08785,320.56651c-10.12475,0 -17.21674,8.39841 -17.21674,17.31006c0,4.38584 1.72634,8.49173 4.61913,11.6178l3.68597,-3.73263c-2.00629,-2.19292 -3.07942,-5.03905 -3.07942,-7.93183c0,-6.71873 5.45897,-12.03772 11.99107,-12.03772c3.03276,0 5.83223,1.11979 8.02515,3.07942l3.68597,-3.73263c-3.21939,-2.9861 -7.46525,-4.57247 -11.71112,-4.57247zM404.73213,326.07214l-3.68597,3.68597c2.05295,2.37955 3.03276,5.22568 3.03276,8.02515c0,2.93944 -1.07313,5.78557 -3.03276,7.97849l3.68597,3.73263c3.03276,-3.26605 4.57247,-7.46525 4.57247,-11.71112c0,-4.19921 -1.49305,-8.39841 -4.57247,-11.71112zM392.08785,349.77432c-2.9861,0 -5.83223,-1.16645 -7.97849,-3.07942l-3.68597,3.73263c3.07942,2.89279 7.23197,4.57247 11.66446,4.57247c4.38584,0 8.58504,-1.67968 11.71112,-4.57247l-3.68597,-3.73263c-2.19292,1.95963 -5.03905,3.07942 -8.02515,3.07942z" data-paper-data="{&quot;glyphName&quot;:&quot;O&quot;,&quot;glyphIndex&quot;:7,&quot;lastGlyphOfWord&quot;:true,&quot;word&quot;:2}" fill="#ce0056"></path></g><g data-paper-data="{&quot;fillRule&quot;:&quot;evenodd&quot;,&quot;isIcon&quot;:&quot;true&quot;,&quot;iconType&quot;:&quot;icon&quot;,&quot;rawIconId&quot;:&quot;1605432&quot;,&quot;selectedEffects&quot;:{&quot;container&quot;:&quot;enclosed_circle_outline2&quot;,&quot;transformation&quot;:&quot;&quot;,&quot;pattern&quot;:&quot;&quot;},&quot;blockLetter&quot;:&quot;O&quot;,&quot;blockLetterId&quot;:&quot;0&quot;,&quot;relativeBoundsIconToContainer&quot;:{&quot;top&quot;:&quot;0&quot;,&quot;left&quot;:&quot;5.179940109831272e-8&quot;},&quot;widthRatioIconToContainer&quot;:&quot;0.7708166296796903&quot;,&quot;heightRatioIconToContainer&quot;:&quot;1&quot;,&quot;bounds&quot;:{&quot;x&quot;:187.76977300926785,&quot;y&quot;:115.00000000000003,&quot;width&quot;:174.4604539814643,&quot;height&quot;:180.73947032073747},&quot;iconStyle&quot;:&quot;standalone&quot;}" fill-rule="evenodd"><g data-paper-data="{&quot;isPathIcon&quot;:true}"><path d="M333.39415,219.08927c4.76301,-15.19404 -7.03002,-30.61408 -22.67706,-30.16108c-2.26801,-2.94801 -4.76201,-5.21501 -7.71002,-6.80302v-62.81616c0,-2.49501 -2.04101,-4.30901 -4.53601,-4.30901c-2.26801,0 -4.30901,1.814 -4.30901,4.30901v60.09516c-1.814,-0.227 -3.62801,-0.227 -5.44201,0v-60.09516c0,-2.49501 -1.814,-4.30901 -4.30901,-4.30901c-2.49401,0 -4.30901,1.814 -4.30901,4.30901v63.27016c-2.72101,1.587 -5.21501,3.62801 -7.03002,6.34902c-5.66901,-0.226 -11.33803,1.815 -15.64704,5.44301v-17.68805c-12.47303,0 -22.90406,4.98901 -26.07907,17.91505l-6.80302,-6.80402c-8.84402,8.84502 -12.47303,19.73005 -5.89602,31.29508h-10.88503c0,25.85307 10.88503,48.30313 34.01609,61.22916v15.42104h66.44417v-15.42104c22.90506,-12.92603 34.01709,-35.37609 34.01709,-61.22916zM236.1079,199.58722c0.681,-8.84402 7.25702,-15.87404 15.64804,-17.00804v32.42808zM276.02,219.08927h-18.59505v-16.10104c4.53601,-7.25602 10.65803,-8.84402 18.59605,-7.93702c7.71002,-13.15303 23.81106,-13.37903 31.74808,0c14.28704,-1.587 24.94506,10.43203 19.50205,24.03806h-19.72905l10.65803,-10.65803l-4.08101,-3.85501l-14.51404,14.51304h-4.98901v-24.03806h-5.66901v24.03806h-4.98901l-14.51404,-14.51304l-3.85501,3.85501zM224.54287,195.95821l23.13106,23.13106h-21.99706c-5.67001,-6.57602 -6.12302,-16.10104 -1.134,-23.13106zM336.56916,224.75929c-1.134,21.31606 -13.15303,40.81911 -31.97508,51.02413h-59.18815c-19.04905,-10.20503 -31.06808,-29.70808 -31.97508,-51.02413zM247.44693,290.07046v-8.61802h55.10614v8.61802z" fill="#006747"></path><path d="M241.04591,126.45103c-10.43669,4.41401 -19.67905,10.64503 -27.72707,18.69305c-8.04802,8.04802 -14.27904,17.29004 -18.69405,27.72707c-4.57001,10.80536 -6.85502,22.12339 -6.85502,33.95409c0,11.83103 2.28501,23.14906 6.85502,33.95509c4.41468,10.43603 10.64603,19.67838 18.69405,27.72707c6.39702,6.39602 13.54804,11.64503 21.45406,15.74704l-0.044,-0.332l-9.79903,-9.15602l-1.353,-1.294l-0.11,-0.109l-1.27,-1.286l-0.108,-0.113l-1.232,-1.322l-0.105,-0.117l-0.186,-0.211c-1.609,-1.385 -3.17501,-2.83901 -4.69601,-4.35901c-7.71602,-7.71602 -13.69004,-16.57704 -17.92105,-26.58107c-4.38101,-10.35603 -6.57102,-21.20606 -6.57102,-32.54908c0,-11.34203 2.19001,-22.19206 6.57102,-32.54908c4.23101,-10.00403 10.20503,-18.86405 17.92105,-26.58007c7.71669,-7.71669 16.57704,-13.6907 26.58107,-17.92205c10.25936,-4.33934 21.00239,-6.52935 32.22908,-6.57002v-3.60901c-11.7147,0.04133 -22.92606,2.32667 -33.63409,6.85602z" fill="#ce0056"></path><path d="M336.68116,145.14408c-8.04802,-8.04802 -17.29004,-14.27904 -27.72607,-18.69305c-0.176,-0.075 -0.351,-0.148 -0.527,-0.221v3.92201c9.64503,4.20601 18.21205,10.05403 25.70207,17.54405c7.71602,7.71602 13.69004,16.57604 17.92105,26.58007c4.38001,10.35703 6.57102,21.20606 6.57102,32.54908c0,11.34303 -2.19101,22.19306 -6.57102,32.54908c-4.23101,10.00403 -10.20503,18.86505 -17.92105,26.58107c-1.656,1.655 -3.36401,3.23001 -5.12401,4.72501l-0.137,0.154l-0.105,0.114l-1.239,1.316l-0.107,0.11l-1.276,1.28l-0.109,0.107l-1.311,1.244l-0.112,0.103l-1.346,1.206l-0.113,0.099l-1.378,1.169l-0.114,0.095l-1.41,1.13l-0.116,0.09l-1.44,1.092l-0.873,2.86301c6.88402,-3.87401 13.17103,-8.65502 18.86105,-14.34504c8.04802,-8.04902 14.27904,-17.29104 18.69305,-27.72707c4.57101,-10.80603 6.85602,-22.12406 6.85602,-33.95509c0,-11.83003 -2.28501,-23.14906 -6.85602,-33.95409c-4.41401,-10.43703 -10.64503,-19.67905 -18.69305,-27.72707z" fill="#ce0056"></path></g></g></g></g></svg>